<svg xmlns:mydata="http://www.w3.org/2000/svg"
            xmlns="http://www.w3.org/2000/svg"
            xmlns:xlink="http://www.w3.org/1999/xlink" 
            viewBox="65 194 420 81"><g fill="#e0f2f1" fill-rule="nonzero"
                stroke="none" stroke-width="1" stroke-linecap="butt"
                stroke-linejoin="miter" 
                ><g
                    data-paper-data="{&quot;isGlobalGroup&quot;:true,&quot;bounds&quot;:{&quot;x&quot;:65,&quot;y&quot;:194.45720484580497,&quot;width&quot;:420,&quot;height&quot;:81.08559030839004}}"><g
                        data-paper-data="{&quot;isSecondaryText&quot;:true}"
                        id="element-id-5478"><path
                            d="M206.71349,259.79475c1.30463,-0.02663 2.39959,0.18305 3.28487,0.62902c0.88529,0.44597 1.57421,1.06168 2.06678,1.84712c0.13313,0.213 0.24295,0.41602 0.32949,0.60905c0.08653,0.19303 0.16974,0.42267 0.24961,0.68893c0.02663,0.06656 0.05325,0.15642 0.07988,0.26958c0.02663,0.11316 0.01997,0.21633 -0.01997,0.30952c-0.02663,0.07988 -0.07655,0.1298 -0.14977,0.14977c-0.07322,0.01997 -0.14977,0.04327 -0.22964,0.06989h-0.19969c-0.03994,0.01331 -0.08986,0.01997 -0.14977,0.01997c-0.05991,0 -0.11648,0 -0.16974,0c-0.18638,0 -0.35611,-0.00998 -0.50921,-0.02995c-0.15309,-0.01997 -0.26292,-0.0832 -0.32949,-0.1897c-0.09319,-0.13313 -0.16641,-0.28622 -0.21966,-0.45928c-0.05325,-0.17306 -0.12647,-0.33281 -0.21966,-0.47925c-0.17306,-0.29288 -0.36942,-0.54582 -0.58908,-0.75882c-0.21966,-0.213 -0.47592,-0.41269 -0.7688,-0.59907c-0.15975,-0.1065 -0.33614,-0.18638 -0.52917,-0.23963c-0.19303,-0.05325 -0.38939,-0.1065 -0.58908,-0.15975c-0.14644,-0.03994 -0.31285,-0.06989 -0.49922,-0.08986c-0.18638,-0.01997 -0.38274,-0.02995 -0.58908,-0.02995c-0.20634,0 -0.40603,0.00998 -0.59907,0.02995c-0.19303,0.01997 -0.35611,0.04992 -0.48924,0.08986c-0.13313,0.02663 -0.25959,0.05325 -0.37941,0.07988c-0.11981,0.02663 -0.23963,0.06656 -0.35944,0.11981c-1.11826,0.46594 -1.92367,1.26469 -2.41623,2.39626c-0.09319,0.18638 -0.16974,0.38274 -0.22964,0.58908c-0.05991,0.20634 -0.12314,0.41602 -0.1897,0.62902c-0.02663,0.07988 -0.03994,0.16308 -0.03994,0.24961c0,0.08653 -0.01331,0.16974 -0.03994,0.24961c-0.01331,0.05325 -0.01997,0.09984 -0.01997,0.13978c0,0.03994 -0.00666,0.08653 -0.01997,0.13978c-0.02663,0.14644 -0.04327,0.2962 -0.04992,0.4493c-0.00666,0.15309 -0.00998,0.30952 -0.00998,0.46927c0,0.09319 -0.00333,0.1897 -0.00998,0.28955c-0.00666,0.09984 -0.00333,0.1897 0.00998,0.26958v0.19969c0.02663,0.09319 0.03661,0.18638 0.02995,0.27956c-0.00666,0.09319 0.00333,0.18638 0.02995,0.27956c0.02663,0.07988 0.03661,0.15975 0.02995,0.23963c-0.00666,0.07988 0.00333,0.15309 0.02995,0.21966c0.03994,0.17306 0.07655,0.3428 0.10983,0.50921c0.03328,0.16641 0.07655,0.32949 0.1298,0.48924c0.22631,0.66563 0.51919,1.23474 0.87863,1.70734c0.35944,0.4726 0.83204,0.86199 1.41779,1.16818c0.18638,0.09319 0.37608,0.16641 0.56911,0.21966c0.19303,0.05325 0.40271,0.11316 0.62902,0.17972c0.09319,0.02663 0.17972,0.03661 0.25959,0.02995c0.07988,-0.00666 0.17306,0.00333 0.27956,0.02995c0.06656,0.01331 0.18638,0.0233 0.35944,0.02995c0.17306,0.00666 0.29953,-0.00333 0.37941,-0.02995h0.13978c0.05325,-0.01331 0.1065,-0.01664 0.15975,-0.00998c0.05325,0.00666 0.1065,-0.00333 0.15975,-0.02995c0.13313,-0.02663 0.26292,-0.04992 0.38939,-0.06989c0.12647,-0.01997 0.24961,-0.05658 0.36942,-0.10983c1.03838,-0.426 1.77057,-1.12491 2.19657,-2.09673c0.1065,-0.23963 0.20634,-0.52585 0.29953,-0.85866c0.02663,-0.11981 0.04992,-0.24295 0.06989,-0.36942c0.01997,-0.12647 0.06323,-0.24295 0.1298,-0.34945c0.06656,-0.1065 0.17306,-0.16641 0.3195,-0.17972c0.14644,-0.01331 0.30619,-0.01997 0.47925,-0.01997c0.06656,0 0.13313,0 0.19969,0c0.06656,0 0.12647,0.00666 0.17972,0.01997h0.13978c0.03994,0.01331 0.0832,0.0233 0.1298,0.02995c0.04659,0.00666 0.0832,0.0233 0.10983,0.04992c0.09319,0.05325 0.14644,0.14977 0.15975,0.28955c0.01331,0.13978 0,0.27624 -0.03994,0.40936c-0.07988,0.30619 -0.15309,0.59907 -0.21966,0.87863c-0.06656,0.27956 -0.16641,0.54582 -0.29953,0.79875c-0.1065,0.17306 -0.20302,0.33947 -0.28955,0.49922c-0.08653,0.15975 -0.18305,0.3195 -0.28955,0.47925c-0.23963,0.34613 -0.53583,0.6623 -0.88861,0.94852c-0.35278,0.28622 -0.73552,0.52252 -1.14821,0.70889c-0.14644,0.06656 -0.28955,0.11981 -0.42933,0.15975c-0.13978,0.03994 -0.28289,0.08653 -0.42933,0.13978c-0.14644,0.05325 -0.2962,0.08986 -0.4493,0.10983c-0.15309,0.01997 -0.30952,0.04327 -0.46927,0.06989c-0.06656,0.02663 -0.12647,0.03661 -0.17972,0.02995c-0.05325,-0.00666 -0.1065,-0.00333 -0.15975,0.00998c-0.07988,0.01331 -0.15975,0.01997 -0.23963,0.01997c-0.07988,0 -0.16641,0.00666 -0.25959,0.01997c-0.03994,0.01331 -0.1298,0.01664 -0.26958,0.00998c-0.13978,-0.00666 -0.22964,-0.01664 -0.26958,-0.02995c-0.06656,-0.01331 -0.1298,-0.01664 -0.1897,-0.00998c-0.05991,0.00666 -0.12314,0.00333 -0.1897,-0.00998h-0.19969c-0.1065,-0.02663 -0.20634,-0.04327 -0.29953,-0.04992c-0.09319,-0.00666 -0.19303,-0.0233 -0.29953,-0.04992c-0.11981,-0.02663 -0.23963,-0.04992 -0.35944,-0.06989c-0.11981,-0.01997 -0.23297,-0.04992 -0.33947,-0.08986c-0.27956,-0.07988 -0.5325,-0.17972 -0.75882,-0.29953c-0.83869,-0.35944 -1.51763,-0.87197 -2.03682,-1.5376c-0.51919,-0.66563 -0.93188,-1.45107 -1.23807,-2.35632c-0.05325,-0.15975 -0.09652,-0.32616 -0.1298,-0.49922c-0.03328,-0.17306 -0.06989,-0.35278 -0.10983,-0.53916c-0.02663,-0.06656 -0.03661,-0.12647 -0.02995,-0.17972c0.00666,-0.05325 0.00333,-0.11316 -0.00998,-0.17972c-0.02663,-0.11981 -0.04327,-0.24628 -0.04992,-0.37941c-0.00666,-0.13313 -0.0233,-0.25959 -0.04992,-0.37941v-0.37941c-0.02663,-0.06656 -0.03994,-0.17972 -0.03994,-0.33947c0,-0.15975 0.01331,-0.27291 0.03994,-0.33947c0.01331,-0.03994 0.01331,-0.0832 0,-0.1298c-0.01331,-0.04659 -0.01331,-0.0832 0,-0.10983v-0.17972c0.01331,-0.1065 0.0233,-0.21633 0.02995,-0.32949c0.00666,-0.11316 0.0233,-0.22299 0.04992,-0.32949c0.02663,-0.07988 0.03994,-0.16308 0.03994,-0.24961c0,-0.08653 0.01331,-0.17639 0.03994,-0.26958c0.06656,-0.22631 0.11981,-0.44597 0.15975,-0.65897c0.03994,-0.213 0.09984,-0.41269 0.17972,-0.59907c0.06656,-0.17306 0.13645,-0.34945 0.20967,-0.52917c0.07322,-0.17972 0.15642,-0.3428 0.24961,-0.48924c0.19969,-0.34613 0.39938,-0.65897 0.59907,-0.93854c0.03994,-0.06656 0.08986,-0.12314 0.14977,-0.16974c0.05991,-0.04659 0.10983,-0.10317 0.14977,-0.16974c0.07988,-0.1065 0.16308,-0.19969 0.24961,-0.27956c0.08653,-0.07988 0.17639,-0.15975 0.26958,-0.23963c0.07988,-0.06656 0.15642,-0.1298 0.22964,-0.1897c0.07322,-0.05991 0.15642,-0.12314 0.24961,-0.1897c0.19969,-0.14644 0.40936,-0.27291 0.62902,-0.37941c0.21966,-0.1065 0.4493,-0.213 0.68893,-0.3195c0.14644,-0.06656 0.30286,-0.11648 0.46927,-0.14977c0.16641,-0.03328 0.32949,-0.07655 0.48924,-0.1298c0.09319,-0.01331 0.17972,-0.02663 0.25959,-0.03994c0.07988,-0.01331 0.15975,-0.02663 0.23963,-0.03994c0.1065,-0.01331 0.20967,-0.0233 0.30952,-0.02995c0.09984,-0.00666 0.20302,-0.01664 0.30952,-0.02995c0.02663,-0.01331 0.05991,-0.01331 0.09984,0c0.03994,0.01331 0.07322,0.01331 0.09984,0z"
                            data-paper-data="{&quot;glyphName&quot;:&quot;C&quot;,&quot;glyphIndex&quot;:0,&quot;firstGlyphOfWord&quot;:true,&quot;word&quot;:1}"
                            id="element-id-4681"></path><path
                            d="M251.35382,273.29369c0.02663,0.06656 0.05991,0.14644 0.09984,0.23963c0.03994,0.09319 0.06989,0.1897 0.08986,0.28955c0.01997,0.09984 0.01997,0.19303 0,0.27956c-0.01997,0.08653 -0.07655,0.14977 -0.16974,0.1897c-0.06656,0.02663 -0.14644,0.03994 -0.23963,0.03994c-0.09319,0 -0.18638,0 -0.27956,0c-0.18638,0 -0.38274,0 -0.58908,0c-0.20634,0 -0.36942,-0.03328 -0.48924,-0.09984c-0.13313,-0.07988 -0.22964,-0.21966 -0.28955,-0.41935c-0.05991,-0.19969 -0.12314,-0.37941 -0.1897,-0.53916c-0.14644,-0.34613 -0.27956,-0.70557 -0.39938,-1.07832c-0.11981,-0.37275 -0.25294,-0.73885 -0.39938,-1.09829c-0.03994,-0.11981 -0.07655,-0.23297 -0.10983,-0.33947c-0.03328,-0.1065 -0.07322,-0.20634 -0.11981,-0.29953c-0.04659,-0.09319 -0.10983,-0.17306 -0.1897,-0.23963c-0.07988,-0.06656 -0.18638,-0.11981 -0.3195,-0.15975c-0.06656,-0.02663 -0.14311,-0.03661 -0.22964,-0.02995c-0.08653,0.00666 -0.17639,0.00998 -0.26958,0.00998h-3.77411c-0.11981,0 -0.25294,-0.00333 -0.39938,-0.00998c-0.14644,-0.00666 -0.28622,-0.00333 -0.41935,0.00998c-0.13313,0.01331 -0.25627,0.03328 -0.36942,0.05991c-0.11316,0.02663 -0.19636,0.07988 -0.24961,0.15975c-0.1065,0.13313 -0.18305,0.28289 -0.22964,0.4493c-0.04659,0.16641 -0.10317,0.33614 -0.16974,0.50921c-0.13313,0.30619 -0.25627,0.62569 -0.36942,0.9585c-0.11316,0.33281 -0.2363,0.65232 -0.36942,0.9585c-0.02663,0.07988 -0.05658,0.16974 -0.08986,0.26958c-0.03328,0.09984 -0.06989,0.20302 -0.10983,0.30952c-0.03994,0.1065 -0.0832,0.20302 -0.1298,0.28955c-0.04659,0.08653 -0.09652,0.14977 -0.14977,0.1897c-0.1065,0.07988 -0.24961,0.12314 -0.42933,0.1298c-0.17972,0.00666 -0.36942,0.00998 -0.56911,0.00998c-0.1065,0 -0.20967,-0.00333 -0.30952,-0.00998c-0.09984,-0.00666 -0.18305,-0.03661 -0.24961,-0.08986c-0.06656,-0.03994 -0.10317,-0.09984 -0.10983,-0.17972c-0.00666,-0.07988 0,-0.16308 0.01997,-0.24961c0.01997,-0.08653 0.04659,-0.17306 0.07988,-0.25959c0.03328,-0.08653 0.06323,-0.14977 0.08986,-0.1897c0.18638,-0.426 0.35278,-0.84868 0.49922,-1.26802c0.14644,-0.41935 0.30619,-0.84202 0.47925,-1.26802c0.11981,-0.29288 0.23297,-0.58242 0.33947,-0.86864c0.1065,-0.28622 0.21966,-0.57577 0.33947,-0.86864c0.39938,-0.9585 0.77878,-1.92699 1.13822,-2.90547c0.35944,-0.97847 0.73885,-1.95362 1.13822,-2.92544c0.14644,-0.34613 0.28289,-0.69891 0.40936,-1.05835c0.12647,-0.35944 0.26292,-0.71222 0.40936,-1.05835c0.06656,-0.14644 0.1298,-0.30952 0.1897,-0.48924c0.05991,-0.17972 0.14977,-0.30952 0.26958,-0.38939c0.05325,-0.05325 0.13978,-0.09319 0.25959,-0.11981c0.02663,-0.01331 0.05658,-0.01664 0.08986,-0.00998c0.03328,0.00666 0.06323,0.00333 0.08986,-0.00998c0.23963,0 0.51919,-0.00333 0.83869,-0.00998c0.3195,-0.00666 0.55247,0.04327 0.69891,0.14977c0.1065,0.07988 0.1897,0.20967 0.24961,0.38939c0.05991,0.17972 0.12314,0.3428 0.1897,0.48924c0.13313,0.30619 0.25294,0.61238 0.35944,0.91857c0.1065,0.30619 0.22631,0.61238 0.35944,0.91857c0.1065,0.26625 0.20967,0.53916 0.30952,0.81872c0.09984,0.27956 0.20967,0.55247 0.32949,0.81872c0.39938,0.97182 0.78211,1.95362 1.14821,2.9454c0.3661,0.99179 0.75549,1.97359 1.16818,2.9454c0.05325,0.11981 0.09652,0.23297 0.1298,0.33947c0.03328,0.1065 0.06989,0.21966 0.10983,0.33947c0.14644,0.34613 0.28955,0.69891 0.42933,1.05835c0.13978,0.35944 0.28289,0.71222 0.42933,1.05835zM247.08049,268.44126c0.11981,-0.03994 0.19636,-0.1065 0.22964,-0.19969c0.03328,-0.09319 0.03994,-0.19636 0.01997,-0.30952c-0.01997,-0.11316 -0.05325,-0.22631 -0.09984,-0.33947c-0.04659,-0.11316 -0.08986,-0.20967 -0.1298,-0.28955c-0.02663,-0.05325 -0.03994,-0.09984 -0.03994,-0.13978c0,-0.03994 -0.01331,-0.08653 -0.03994,-0.13978c-0.03994,-0.1065 -0.07655,-0.21633 -0.10983,-0.32949c-0.03328,-0.11316 -0.07655,-0.22964 -0.1298,-0.34945c-0.19969,-0.47925 -0.37608,-0.96849 -0.52917,-1.46771c-0.15309,-0.49922 -0.32949,-0.98846 -0.52917,-1.46771c-0.06656,-0.14644 -0.12314,-0.29288 -0.16974,-0.43931c-0.04659,-0.14644 -0.10317,-0.28622 -0.16974,-0.41935c-0.02663,-0.06656 -0.05658,-0.1298 -0.08986,-0.1897c-0.03328,-0.05991 -0.10317,-0.08986 -0.20967,-0.08986c-0.02663,0.02663 -0.05325,0.04659 -0.07988,0.05991c-0.02663,0.01331 -0.05325,0.03328 -0.07988,0.05991c-0.05325,0.06656 -0.09319,0.13645 -0.11981,0.20967c-0.02663,0.07322 -0.05325,0.14977 -0.07988,0.22964c-0.06656,0.14644 -0.11981,0.29288 -0.15975,0.43931c-0.03994,0.14644 -0.09319,0.29288 -0.15975,0.43931c-0.22631,0.51919 -0.42267,1.04504 -0.58908,1.57754c-0.16641,0.5325 -0.35611,1.05169 -0.56911,1.55757c-0.02663,0.06656 -0.04992,0.13313 -0.06989,0.19969c-0.01997,0.06656 -0.04327,0.13313 -0.06989,0.19969c-0.03994,0.1065 -0.07988,0.213 -0.11981,0.3195c-0.03994,0.1065 -0.07322,0.213 -0.09984,0.3195c-0.02663,0.06656 -0.03661,0.13978 -0.02995,0.21966c0.00666,0.07988 0.0233,0.14644 0.04992,0.19969c0.06656,0.1065 0.20634,0.16308 0.41935,0.16974c0.213,0.00666 0.41269,0.00998 0.59907,0.00998h2.13667c0.14644,0 0.32616,0.00333 0.53916,0.00998c0.213,0.00666 0.37275,-0.00998 0.47925,-0.04992z"
                            data-paper-data="{&quot;glyphName&quot;:&quot;A&quot;,&quot;glyphIndex&quot;:1,&quot;word&quot;:1}"
                            id="element-id-43694"></path><path
                            d="M280.34886,260.11425h1.2181c0.13313,0 0.25959,0 0.37941,0c0.11981,0 0.21966,0.02663 0.29953,0.07988c0.11981,0.07988 0.20302,0.18638 0.24961,0.3195c0.04659,0.13313 0.10317,0.27291 0.16974,0.41935c0.1065,0.25294 0.20302,0.50588 0.28955,0.75882c0.08653,0.25294 0.18305,0.50588 0.28955,0.75882c0.09319,0.23963 0.17972,0.48258 0.25959,0.72886c0.07988,0.24628 0.17306,0.48924 0.27956,0.72886c0.07988,0.18638 0.15309,0.37941 0.21966,0.5791c0.06656,0.19969 0.13978,0.39272 0.21966,0.5791c0.23963,0.59907 0.46594,1.20146 0.67894,1.80718c0.213,0.60572 0.43931,1.20812 0.67894,1.80718c0.02663,0.06656 0.04992,0.13313 0.06989,0.19969c0.01997,0.06656 0.04327,0.13313 0.06989,0.19969c0.11981,0.29288 0.23297,0.58908 0.33947,0.88861c0.1065,0.29953 0.21966,0.59574 0.33947,0.88861c0.05325,0.11981 0.1065,0.26292 0.15975,0.42933c0.05325,0.16641 0.13978,0.26292 0.25959,0.28955c0.05325,0.01331 0.09319,0.00998 0.11981,-0.00998c0.02663,-0.01997 0.05325,-0.04327 0.07988,-0.06989c0.06656,-0.06656 0.11648,-0.13978 0.14977,-0.21966c0.03328,-0.07988 0.06989,-0.16641 0.10983,-0.25959c0.1065,-0.27956 0.213,-0.56246 0.3195,-0.84868c0.1065,-0.28622 0.213,-0.56911 0.3195,-0.84868c0.02663,-0.06656 0.05325,-0.13645 0.07988,-0.20967c0.02663,-0.07322 0.05325,-0.14977 0.07988,-0.22964c0.1065,-0.25294 0.20302,-0.50921 0.28955,-0.7688c0.08653,-0.25959 0.18305,-0.52252 0.28955,-0.78877c0.3195,-0.77213 0.61571,-1.55091 0.88861,-2.33635c0.27291,-0.78544 0.56911,-1.56423 0.88861,-2.33635c0.1065,-0.26625 0.20967,-0.53916 0.30952,-0.81872c0.09984,-0.27956 0.20302,-0.55247 0.30952,-0.81872c0.05325,-0.1065 0.10317,-0.23963 0.14977,-0.39938c0.04659,-0.15975 0.11648,-0.27291 0.20967,-0.33947c0.07988,-0.05325 0.18305,-0.09319 0.30952,-0.11981c0.12647,-0.02663 0.26958,-0.04327 0.42933,-0.04992c0.15975,-0.00666 0.3195,-0.00666 0.47925,0c0.15975,0.00666 0.30619,0.00998 0.43931,0.00998c0.11981,0 0.24295,0 0.36942,0c0.12647,0 0.22299,0.02663 0.28955,0.07988c0.11981,0.06656 0.18638,0.18638 0.19969,0.35944c0.01331,0.17306 0.01997,0.35944 0.01997,0.55913v2.19657v8.34698v1.67738c0,0.14644 0.00333,0.29288 0.00998,0.43931c0.00666,0.14644 -0.0233,0.25959 -0.08986,0.33947c-0.03994,0.07988 -0.09984,0.1298 -0.17972,0.14977c-0.07988,0.01997 -0.17306,0.04327 -0.27956,0.06989h-0.3195c-0.17306,0 -0.33281,-0.00333 -0.47925,-0.00998c-0.14644,-0.00666 -0.25294,-0.06323 -0.3195,-0.16974c-0.02663,-0.03994 -0.04327,-0.0832 -0.04992,-0.1298c-0.00666,-0.04659 -0.0233,-0.10317 -0.04992,-0.16974v-0.21966c-0.01331,-0.07988 -0.01664,-0.17306 -0.00998,-0.27956c0.00666,-0.1065 0.00998,-0.20634 0.00998,-0.29953v-1.11826v-5.89081c0,-0.33281 0,-0.66896 0,-1.00843c0,-0.33947 -0.00666,-0.66896 -0.01997,-0.98846c0,-0.13313 -0.00666,-0.27956 -0.01997,-0.43931c-0.01331,-0.15975 -0.08653,-0.23963 -0.21966,-0.23963v0.01997c-0.09319,0.02663 -0.16974,0.11316 -0.22964,0.25959c-0.05991,0.14644 -0.10983,0.27291 -0.14977,0.37941c-0.09319,0.22631 -0.17972,0.45596 -0.25959,0.68893c-0.07988,0.23297 -0.17306,0.46261 -0.27956,0.68893c-0.02663,0.06656 -0.04659,0.12647 -0.05991,0.17972c-0.01331,0.05325 -0.03328,0.11316 -0.05991,0.17972c-0.1065,0.23963 -0.19636,0.48258 -0.26958,0.72886c-0.07322,0.24628 -0.16308,0.48924 -0.26958,0.72886c-0.09319,0.19969 -0.17306,0.40271 -0.23963,0.60905c-0.06656,0.20634 -0.13978,0.40936 -0.21966,0.60905c-0.26625,0.62569 -0.50588,1.25471 -0.71888,1.88706c-0.213,0.63235 -0.44597,1.25471 -0.69891,1.86709c-0.1065,0.23963 -0.19969,0.47925 -0.27956,0.71888c-0.07988,0.23963 -0.16641,0.47925 -0.25959,0.71888c-0.06656,0.14644 -0.1298,0.28289 -0.1897,0.40936c-0.05991,0.12647 -0.17639,0.21633 -0.34945,0.26958c-0.02663,0.01331 -0.05658,0.01664 -0.08986,0.00998c-0.03328,-0.00666 -0.06989,-0.00333 -0.10983,0.00998c-0.03994,0.01331 -0.08653,0.01664 -0.13978,0.00998c-0.05325,-0.00666 -0.1065,-0.00998 -0.15975,-0.00998c-0.13313,0 -0.26625,0 -0.39938,0c-0.13313,0 -0.23963,-0.03328 -0.3195,-0.09984c-0.1065,-0.06656 -0.18305,-0.16308 -0.22964,-0.28955c-0.04659,-0.12647 -0.10317,-0.25627 -0.16974,-0.38939c-0.1065,-0.26625 -0.20967,-0.54249 -0.30952,-0.82871c-0.09984,-0.28622 -0.20302,-0.56246 -0.30952,-0.82871c-0.1065,-0.23963 -0.19636,-0.48258 -0.26958,-0.72886c-0.07322,-0.24628 -0.16308,-0.48924 -0.26958,-0.72886c-0.30619,-0.7455 -0.59241,-1.49766 -0.85866,-2.25648c-0.26625,-0.75882 -0.55247,-1.51098 -0.85866,-2.25648c-0.1065,-0.27956 -0.20967,-0.56246 -0.30952,-0.84868c-0.09984,-0.28622 -0.20302,-0.56246 -0.30952,-0.82871c-0.06656,-0.14644 -0.12314,-0.28955 -0.16974,-0.42933c-0.04659,-0.13978 -0.11648,-0.26292 -0.20967,-0.36942c-0.01331,-0.02663 -0.02663,-0.04327 -0.03994,-0.04992c-0.01331,-0.00666 -0.02663,-0.01664 -0.03994,-0.02995h-0.09984c-0.01331,0.01331 -0.02663,0.0233 -0.03994,0.02995c-0.01331,0.00666 -0.02663,0.01664 -0.03994,0.02995c-0.02663,0.06656 -0.03994,0.13978 -0.03994,0.21966c0,0.07988 -0.01331,0.15975 -0.03994,0.23963v0.21966c-0.02663,0.07988 -0.03328,0.16641 -0.01997,0.25959c0.01331,0.09319 0.01997,0.18638 0.01997,0.27956v1.07832v6.07053v1.57754c0,0.14644 -0.00333,0.29288 -0.00998,0.43931c-0.00666,0.14644 -0.04327,0.25959 -0.10983,0.33947c-0.06656,0.1065 -0.18305,0.16308 -0.34945,0.16974c-0.16641,0.00666 -0.3428,0.00998 -0.52917,0.00998c-0.09319,0 -0.17639,0 -0.24961,0c-0.07322,0 -0.14311,-0.01331 -0.20967,-0.03994c-0.17306,-0.05325 -0.26958,-0.16641 -0.28955,-0.33947c-0.01997,-0.17306 -0.02995,-0.37275 -0.02995,-0.59907v-2.31639v-7.98754v-1.87707c0,-0.14644 -0.00333,-0.29953 -0.00998,-0.45928c-0.00666,-0.15975 0.0233,-0.28622 0.08986,-0.37941c0.05325,-0.07988 0.15309,-0.14644 0.29953,-0.19969c0.02663,-0.01331 0.05658,-0.01664 0.08986,-0.00998c0.03328,0.00666 0.06323,0.00333 0.08986,-0.00998z"
                            data-paper-data="{&quot;glyphName&quot;:&quot;M&quot;,&quot;glyphIndex&quot;:2,&quot;word&quot;:1}"
                            id="element-id-92827"></path><path
                            d="M334.84182,273.29369c0.02663,0.06656 0.05991,0.14644 0.09984,0.23963c0.03994,0.09319 0.06989,0.1897 0.08986,0.28955c0.01997,0.09984 0.01997,0.19303 0,0.27956c-0.01997,0.08653 -0.07655,0.14977 -0.16974,0.1897c-0.06656,0.02663 -0.14644,0.03994 -0.23963,0.03994c-0.09319,0 -0.18638,0 -0.27956,0c-0.18638,0 -0.38274,0 -0.58908,0c-0.20634,0 -0.36942,-0.03328 -0.48924,-0.09984c-0.13313,-0.07988 -0.22964,-0.21966 -0.28955,-0.41935c-0.05991,-0.19969 -0.12314,-0.37941 -0.1897,-0.53916c-0.14644,-0.34613 -0.27956,-0.70557 -0.39938,-1.07832c-0.11981,-0.37275 -0.25294,-0.73885 -0.39938,-1.09829c-0.03994,-0.11981 -0.07655,-0.23297 -0.10983,-0.33947c-0.03328,-0.1065 -0.07322,-0.20634 -0.11981,-0.29953c-0.04659,-0.09319 -0.10983,-0.17306 -0.1897,-0.23963c-0.07988,-0.06656 -0.18638,-0.11981 -0.3195,-0.15975c-0.06656,-0.02663 -0.14311,-0.03661 -0.22964,-0.02995c-0.08653,0.00666 -0.17639,0.00998 -0.26958,0.00998h-3.77411c-0.11981,0 -0.25294,-0.00333 -0.39938,-0.00998c-0.14644,-0.00666 -0.28622,-0.00333 -0.41935,0.00998c-0.13313,0.01331 -0.25627,0.03328 -0.36942,0.05991c-0.11316,0.02663 -0.19636,0.07988 -0.24961,0.15975c-0.1065,0.13313 -0.18305,0.28289 -0.22964,0.4493c-0.04659,0.16641 -0.10317,0.33614 -0.16974,0.50921c-0.13313,0.30619 -0.25627,0.62569 -0.36942,0.9585c-0.11316,0.33281 -0.2363,0.65232 -0.36942,0.9585c-0.02663,0.07988 -0.05658,0.16974 -0.08986,0.26958c-0.03328,0.09984 -0.06989,0.20302 -0.10983,0.30952c-0.03994,0.1065 -0.0832,0.20302 -0.1298,0.28955c-0.04659,0.08653 -0.09652,0.14977 -0.14977,0.1897c-0.1065,0.07988 -0.24961,0.12314 -0.42933,0.1298c-0.17972,0.00666 -0.36942,0.00998 -0.56911,0.00998c-0.1065,0 -0.20967,-0.00333 -0.30952,-0.00998c-0.09984,-0.00666 -0.18305,-0.03661 -0.24961,-0.08986c-0.06656,-0.03994 -0.10317,-0.09984 -0.10983,-0.17972c-0.00666,-0.07988 0,-0.16308 0.01997,-0.24961c0.01997,-0.08653 0.04659,-0.17306 0.07988,-0.25959c0.03328,-0.08653 0.06323,-0.14977 0.08986,-0.1897c0.18638,-0.426 0.35278,-0.84868 0.49922,-1.26802c0.14644,-0.41935 0.30619,-0.84202 0.47925,-1.26802c0.11981,-0.29288 0.23297,-0.58242 0.33947,-0.86864c0.1065,-0.28622 0.21966,-0.57577 0.33947,-0.86864c0.39938,-0.9585 0.77878,-1.92699 1.13822,-2.90547c0.35944,-0.97847 0.73885,-1.95362 1.13822,-2.92544c0.14644,-0.34613 0.28289,-0.69891 0.40936,-1.05835c0.12647,-0.35944 0.26292,-0.71222 0.40936,-1.05835c0.06656,-0.14644 0.1298,-0.30952 0.1897,-0.48924c0.05991,-0.17972 0.14977,-0.30952 0.26958,-0.38939c0.05325,-0.05325 0.13978,-0.09319 0.25959,-0.11981c0.02663,-0.01331 0.05658,-0.01664 0.08986,-0.00998c0.03328,0.00666 0.06323,0.00333 0.08986,-0.00998c0.23963,0 0.51919,-0.00333 0.83869,-0.00998c0.3195,-0.00666 0.55247,0.04327 0.69891,0.14977c0.1065,0.07988 0.1897,0.20967 0.24961,0.38939c0.05991,0.17972 0.12314,0.3428 0.1897,0.48924c0.13313,0.30619 0.25294,0.61238 0.35944,0.91857c0.1065,0.30619 0.22631,0.61238 0.35944,0.91857c0.1065,0.26625 0.20967,0.53916 0.30952,0.81872c0.09984,0.27956 0.20967,0.55247 0.32949,0.81872c0.39938,0.97182 0.78211,1.95362 1.14821,2.9454c0.3661,0.99179 0.75549,1.97359 1.16818,2.9454c0.05325,0.11981 0.09652,0.23297 0.1298,0.33947c0.03328,0.1065 0.06989,0.21966 0.10983,0.33947c0.14644,0.34613 0.28955,0.69891 0.42933,1.05835c0.13978,0.35944 0.28289,0.71222 0.42933,1.05835zM330.56848,268.44126c0.11981,-0.03994 0.19636,-0.1065 0.22964,-0.19969c0.03328,-0.09319 0.03994,-0.19636 0.01997,-0.30952c-0.01997,-0.11316 -0.05325,-0.22631 -0.09984,-0.33947c-0.04659,-0.11316 -0.08986,-0.20967 -0.1298,-0.28955c-0.02663,-0.05325 -0.03994,-0.09984 -0.03994,-0.13978c0,-0.03994 -0.01331,-0.08653 -0.03994,-0.13978c-0.03994,-0.1065 -0.07655,-0.21633 -0.10983,-0.32949c-0.03328,-0.11316 -0.07655,-0.22964 -0.1298,-0.34945c-0.19969,-0.47925 -0.37608,-0.96849 -0.52917,-1.46771c-0.15309,-0.49922 -0.32949,-0.98846 -0.52917,-1.46771c-0.06656,-0.14644 -0.12314,-0.29288 -0.16974,-0.43931c-0.04659,-0.14644 -0.10317,-0.28622 -0.16974,-0.41935c-0.02663,-0.06656 -0.05658,-0.1298 -0.08986,-0.1897c-0.03328,-0.05991 -0.10317,-0.08986 -0.20967,-0.08986c-0.02663,0.02663 -0.05325,0.04659 -0.07988,0.05991c-0.02663,0.01331 -0.05325,0.03328 -0.07988,0.05991c-0.05325,0.06656 -0.09319,0.13645 -0.11981,0.20967c-0.02663,0.07322 -0.05325,0.14977 -0.07988,0.22964c-0.06656,0.14644 -0.11981,0.29288 -0.15975,0.43931c-0.03994,0.14644 -0.09319,0.29288 -0.15975,0.43931c-0.22631,0.51919 -0.42267,1.04504 -0.58908,1.57754c-0.16641,0.5325 -0.35611,1.05169 -0.56911,1.55757c-0.02663,0.06656 -0.04992,0.13313 -0.06989,0.19969c-0.01997,0.06656 -0.04327,0.13313 -0.06989,0.19969c-0.03994,0.1065 -0.07988,0.213 -0.11981,0.3195c-0.03994,0.1065 -0.07322,0.213 -0.09984,0.3195c-0.02663,0.06656 -0.03661,0.13978 -0.02995,0.21966c0.00666,0.07988 0.0233,0.14644 0.04992,0.19969c0.06656,0.1065 0.20634,0.16308 0.41935,0.16974c0.213,0.00666 0.41269,0.00998 0.59907,0.00998h2.13667c0.14644,0 0.32616,0.00333 0.53916,0.00998c0.213,0.00666 0.37275,-0.00998 0.47925,-0.04992z"
                            data-paper-data="{&quot;glyphName&quot;:&quot;A&quot;,&quot;glyphIndex&quot;:3,&quot;word&quot;:1}"
                            id="element-id-25399"></path><path
                            d="M367.26291,259.79475c1.30463,-0.02663 2.39959,0.18305 3.28487,0.62902c0.88529,0.44597 1.57421,1.06168 2.06678,1.84712c0.13313,0.213 0.24295,0.41602 0.32949,0.60905c0.08653,0.19303 0.16974,0.42267 0.24961,0.68893c0.02663,0.06656 0.05325,0.15642 0.07988,0.26958c0.02663,0.11316 0.01997,0.21633 -0.01997,0.30952c-0.02663,0.07988 -0.07655,0.1298 -0.14977,0.14977c-0.07322,0.01997 -0.14977,0.04327 -0.22964,0.06989h-0.19969c-0.03994,0.01331 -0.08986,0.01997 -0.14977,0.01997c-0.05991,0 -0.11648,0 -0.16974,0c-0.18638,0 -0.35611,-0.00998 -0.50921,-0.02995c-0.15309,-0.01997 -0.26292,-0.0832 -0.32949,-0.1897c-0.09319,-0.13313 -0.16641,-0.28622 -0.21966,-0.45928c-0.05325,-0.17306 -0.12647,-0.33281 -0.21966,-0.47925c-0.17306,-0.29288 -0.36942,-0.54582 -0.58908,-0.75882c-0.21966,-0.213 -0.47592,-0.41269 -0.7688,-0.59907c-0.15975,-0.1065 -0.33614,-0.18638 -0.52917,-0.23963c-0.19303,-0.05325 -0.38939,-0.1065 -0.58908,-0.15975c-0.14644,-0.03994 -0.31285,-0.06989 -0.49922,-0.08986c-0.18638,-0.01997 -0.38274,-0.02995 -0.58908,-0.02995c-0.20634,0 -0.40603,0.00998 -0.59907,0.02995c-0.19303,0.01997 -0.35611,0.04992 -0.48924,0.08986c-0.13313,0.02663 -0.25959,0.05325 -0.37941,0.07988c-0.11981,0.02663 -0.23963,0.06656 -0.35944,0.11981c-1.11826,0.46594 -1.92367,1.26469 -2.41623,2.39626c-0.09319,0.18638 -0.16974,0.38274 -0.22964,0.58908c-0.05991,0.20634 -0.12314,0.41602 -0.1897,0.62902c-0.02663,0.07988 -0.03994,0.16308 -0.03994,0.24961c0,0.08653 -0.01331,0.16974 -0.03994,0.24961c-0.01331,0.05325 -0.01997,0.09984 -0.01997,0.13978c0,0.03994 -0.00666,0.08653 -0.01997,0.13978c-0.02663,0.14644 -0.04327,0.2962 -0.04992,0.4493c-0.00666,0.15309 -0.00998,0.30952 -0.00998,0.46927c0,0.09319 -0.00333,0.1897 -0.00998,0.28955c-0.00666,0.09984 -0.00333,0.1897 0.00998,0.26958v0.19969c0.02663,0.09319 0.03661,0.18638 0.02995,0.27956c-0.00666,0.09319 0.00333,0.18638 0.02995,0.27956c0.02663,0.07988 0.03661,0.15975 0.02995,0.23963c-0.00666,0.07988 0.00333,0.15309 0.02995,0.21966c0.03994,0.17306 0.07655,0.3428 0.10983,0.50921c0.03328,0.16641 0.07655,0.32949 0.1298,0.48924c0.22631,0.66563 0.51919,1.23474 0.87863,1.70734c0.35944,0.4726 0.83204,0.86199 1.41779,1.16818c0.18638,0.09319 0.37608,0.16641 0.56911,0.21966c0.19303,0.05325 0.40271,0.11316 0.62902,0.17972c0.09319,0.02663 0.17972,0.03661 0.25959,0.02995c0.07988,-0.00666 0.17306,0.00333 0.27956,0.02995c0.06656,0.01331 0.18638,0.0233 0.35944,0.02995c0.17306,0.00666 0.29953,-0.00333 0.37941,-0.02995h0.13978c0.05325,-0.01331 0.1065,-0.01664 0.15975,-0.00998c0.05325,0.00666 0.1065,-0.00333 0.15975,-0.02995c0.13313,-0.02663 0.26292,-0.04992 0.38939,-0.06989c0.12647,-0.01997 0.24961,-0.05658 0.36942,-0.10983c1.03838,-0.426 1.77057,-1.12491 2.19657,-2.09673c0.1065,-0.23963 0.20634,-0.52585 0.29953,-0.85866c0.02663,-0.11981 0.04992,-0.24295 0.06989,-0.36942c0.01997,-0.12647 0.06323,-0.24295 0.1298,-0.34945c0.06656,-0.1065 0.17306,-0.16641 0.3195,-0.17972c0.14644,-0.01331 0.30619,-0.01997 0.47925,-0.01997c0.06656,0 0.13313,0 0.19969,0c0.06656,0 0.12647,0.00666 0.17972,0.01997h0.13978c0.03994,0.01331 0.0832,0.0233 0.1298,0.02995c0.04659,0.00666 0.0832,0.0233 0.10983,0.04992c0.09319,0.05325 0.14644,0.14977 0.15975,0.28955c0.01331,0.13978 0,0.27624 -0.03994,0.40936c-0.07988,0.30619 -0.15309,0.59907 -0.21966,0.87863c-0.06656,0.27956 -0.16641,0.54582 -0.29953,0.79875c-0.1065,0.17306 -0.20302,0.33947 -0.28955,0.49922c-0.08653,0.15975 -0.18305,0.3195 -0.28955,0.47925c-0.23963,0.34613 -0.53583,0.6623 -0.88861,0.94852c-0.35278,0.28622 -0.73552,0.52252 -1.14821,0.70889c-0.14644,0.06656 -0.28955,0.11981 -0.42933,0.15975c-0.13978,0.03994 -0.28289,0.08653 -0.42933,0.13978c-0.14644,0.05325 -0.2962,0.08986 -0.4493,0.10983c-0.15309,0.01997 -0.30952,0.04327 -0.46927,0.06989c-0.06656,0.02663 -0.12647,0.03661 -0.17972,0.02995c-0.05325,-0.00666 -0.1065,-0.00333 -0.15975,0.00998c-0.07988,0.01331 -0.15975,0.01997 -0.23963,0.01997c-0.07988,0 -0.16641,0.00666 -0.25959,0.01997c-0.03994,0.01331 -0.1298,0.01664 -0.26958,0.00998c-0.13978,-0.00666 -0.22964,-0.01664 -0.26958,-0.02995c-0.06656,-0.01331 -0.1298,-0.01664 -0.1897,-0.00998c-0.05991,0.00666 -0.12314,0.00333 -0.1897,-0.00998h-0.19969c-0.1065,-0.02663 -0.20634,-0.04327 -0.29953,-0.04992c-0.09319,-0.00666 -0.19303,-0.0233 -0.29953,-0.04992c-0.11981,-0.02663 -0.23963,-0.04992 -0.35944,-0.06989c-0.11981,-0.01997 -0.23297,-0.04992 -0.33947,-0.08986c-0.27956,-0.07988 -0.5325,-0.17972 -0.75882,-0.29953c-0.83869,-0.35944 -1.51763,-0.87197 -2.03682,-1.5376c-0.51919,-0.66563 -0.93188,-1.45107 -1.23807,-2.35632c-0.05325,-0.15975 -0.09652,-0.32616 -0.1298,-0.49922c-0.03328,-0.17306 -0.06989,-0.35278 -0.10983,-0.53916c-0.02663,-0.06656 -0.03661,-0.12647 -0.02995,-0.17972c0.00666,-0.05325 0.00333,-0.11316 -0.00998,-0.17972c-0.02663,-0.11981 -0.04327,-0.24628 -0.04992,-0.37941c-0.00666,-0.13313 -0.0233,-0.25959 -0.04992,-0.37941v-0.37941c-0.02663,-0.06656 -0.03994,-0.17972 -0.03994,-0.33947c0,-0.15975 0.01331,-0.27291 0.03994,-0.33947c0.01331,-0.03994 0.01331,-0.0832 0,-0.1298c-0.01331,-0.04659 -0.01331,-0.0832 0,-0.10983v-0.17972c0.01331,-0.1065 0.0233,-0.21633 0.02995,-0.32949c0.00666,-0.11316 0.0233,-0.22299 0.04992,-0.32949c0.02663,-0.07988 0.03994,-0.16308 0.03994,-0.24961c0,-0.08653 0.01331,-0.17639 0.03994,-0.26958c0.06656,-0.22631 0.11981,-0.44597 0.15975,-0.65897c0.03994,-0.213 0.09984,-0.41269 0.17972,-0.59907c0.06656,-0.17306 0.13645,-0.34945 0.20967,-0.52917c0.07322,-0.17972 0.15642,-0.3428 0.24961,-0.48924c0.19969,-0.34613 0.39938,-0.65897 0.59907,-0.93854c0.03994,-0.06656 0.08986,-0.12314 0.14977,-0.16974c0.05991,-0.04659 0.10983,-0.10317 0.14977,-0.16974c0.07988,-0.1065 0.16308,-0.19969 0.24961,-0.27956c0.08653,-0.07988 0.17639,-0.15975 0.26958,-0.23963c0.07988,-0.06656 0.15642,-0.1298 0.22964,-0.1897c0.07322,-0.05991 0.15642,-0.12314 0.24961,-0.1897c0.19969,-0.14644 0.40936,-0.27291 0.62902,-0.37941c0.21966,-0.1065 0.4493,-0.213 0.68893,-0.3195c0.14644,-0.06656 0.30286,-0.11648 0.46927,-0.14977c0.16641,-0.03328 0.32949,-0.07655 0.48924,-0.1298c0.09319,-0.01331 0.17972,-0.02663 0.25959,-0.03994c0.07988,-0.01331 0.15975,-0.02663 0.23963,-0.03994c0.1065,-0.01331 0.20967,-0.0233 0.30952,-0.02995c0.09984,-0.00666 0.20302,-0.01664 0.30952,-0.02995c0.02663,-0.01331 0.05991,-0.01331 0.09984,0c0.03994,0.01331 0.07322,0.01331 0.09984,0z"
                            data-paper-data="{&quot;glyphName&quot;:&quot;C&quot;,&quot;glyphIndex&quot;:4,&quot;word&quot;:1}"
                            id="element-id-25381"></path><path
                            d="M402.1716,260.11425c0.18638,0 0.40936,-0.00333 0.66896,-0.00998c0.25959,-0.00666 0.42933,0.04327 0.50921,0.14977c0.1065,0.11981 0.15642,0.2962 0.14977,0.52917c-0.00666,0.23297 -0.00998,0.45596 -0.00998,0.66896v2.95539v0.77878c0,0.06656 -0.00333,0.13645 -0.00998,0.20967c-0.00666,0.07322 -0.00333,0.13645 0.00998,0.1897v0.15975c0.01331,0.03994 0.0233,0.08653 0.02995,0.13978c0.00666,0.05325 0.0233,0.09319 0.04992,0.11981c0.05325,0.07988 0.11648,0.13313 0.1897,0.15975c0.07322,0.02663 0.16308,0.05325 0.26958,0.07988h0.55913h1.11826h3.51452c0.13313,0 0.28622,0.00333 0.45928,0.00998c0.17306,0.00666 0.3428,0.00666 0.50921,0c0.16641,-0.00666 0.31617,-0.0233 0.4493,-0.04992c0.13313,-0.02663 0.22631,-0.07988 0.27956,-0.15975c0.09319,-0.13313 0.13645,-0.3428 0.1298,-0.62902c-0.00666,-0.28622 -0.00998,-0.53583 -0.00998,-0.74883v-3.13511c0,-0.213 -0.00666,-0.44597 -0.01997,-0.69891c-0.01331,-0.25294 0.03328,-0.43931 0.13978,-0.55913c0.02663,-0.05325 0.06989,-0.08653 0.1298,-0.09984c0.05991,-0.01331 0.12314,-0.03328 0.1897,-0.05991h0.09984c0.05325,-0.01331 0.11316,-0.01664 0.17972,-0.00998c0.06656,0.00666 0.13313,0.00998 0.19969,0.00998c0.14644,0 0.28955,0.00333 0.42933,0.00998c0.13978,0.00666 0.25627,0.04327 0.34945,0.10983c0.09319,0.06656 0.14311,0.18638 0.14977,0.35944c0.00666,0.17306 0.00998,0.33947 0.00998,0.49922v2.1766v8.24713v1.89704c0,0.18638 -0.00666,0.35278 -0.01997,0.49922c-0.01331,0.14644 -0.07322,0.25294 -0.17972,0.3195c-0.05325,0.03994 -0.1065,0.05991 -0.15975,0.05991c-0.05325,0 -0.11981,0.01331 -0.19969,0.03994c-0.05325,0.01331 -0.10983,0.01664 -0.16974,0.00998c-0.05991,-0.00666 -0.11648,-0.00998 -0.16974,-0.00998c-0.15975,0 -0.32283,0 -0.48924,0c-0.16641,0 -0.28289,-0.04659 -0.34945,-0.13978c-0.1065,-0.13313 -0.15309,-0.33947 -0.13978,-0.61903c0.01331,-0.27956 0.01997,-0.5325 0.01997,-0.75882v-3.37473c0,-0.09319 0,-0.20967 0,-0.34945c0,-0.13978 0,-0.27624 0,-0.40936c0,-0.13313 -0.00666,-0.25959 -0.01997,-0.37941c-0.01331,-0.11981 -0.03994,-0.213 -0.07988,-0.27956c-0.05325,-0.06656 -0.13978,-0.12647 -0.25959,-0.17972c-0.06656,-0.02663 -0.14644,-0.03994 -0.23963,-0.03994c-0.09319,0 -0.19303,0 -0.29953,0h-0.87863h-5.1919c-0.1065,0.02663 -0.19636,0.04992 -0.26958,0.06989c-0.07322,0.01997 -0.13645,0.06323 -0.1897,0.1298c-0.03994,0.06656 -0.06989,0.15975 -0.08986,0.27956c-0.01997,0.11981 -0.03328,0.25294 -0.03994,0.39938c-0.00666,0.14644 -0.00666,0.2962 0,0.4493c0.00666,0.15309 0.00998,0.28289 0.00998,0.38939v3.15508v0.85866c0,0.1065 -0.00333,0.20634 -0.00998,0.29953c-0.00666,0.09319 -0.0233,0.17306 -0.04992,0.23963c-0.06656,0.14644 -0.19303,0.22631 -0.37941,0.23963c-0.18638,0.01331 -0.38606,0.01997 -0.59907,0.01997c-0.13313,0 -0.25627,-0.00333 -0.36942,-0.00998c-0.11316,-0.00666 -0.20302,-0.03661 -0.26958,-0.08986c-0.1065,-0.06656 -0.16308,-0.1897 -0.16974,-0.36942c-0.00666,-0.17972 -0.00998,-0.36277 -0.00998,-0.54914v-2.29642v-7.96757v-1.87707c0,-0.14644 -0.00333,-0.29953 -0.00998,-0.45928c-0.00666,-0.15975 0.0233,-0.28622 0.08986,-0.37941c0.05325,-0.09319 0.15309,-0.15975 0.29953,-0.19969c0.02663,-0.01331 0.05325,-0.01664 0.07988,-0.00998c0.02663,0.00666 0.05325,0.00333 0.07988,-0.00998z"
                            data-paper-data="{&quot;glyphName&quot;:&quot;H&quot;,&quot;glyphIndex&quot;:5,&quot;word&quot;:1}"
                            id="element-id-92874"></path><path
                            d="M454.98228,266.94359c0.01331,0.06656 0.01997,0.16308 0.01997,0.28955c0,0.12647 -0.00666,0.22299 -0.01997,0.28955v0.23963c-0.02663,0.13313 -0.03994,0.26958 -0.03994,0.40936c0,0.13978 -0.01331,0.26958 -0.03994,0.38939c-0.02663,0.1065 -0.04659,0.20634 -0.05991,0.29953c-0.01331,0.09319 -0.02663,0.19303 -0.03994,0.29953c-0.06656,0.22631 -0.12647,0.44597 -0.17972,0.65897c-0.05325,0.213 -0.11981,0.41935 -0.19969,0.61903c-0.39938,0.97182 -0.92189,1.78388 -1.56755,2.4362c-0.64566,0.65232 -1.48768,1.15154 -2.52606,1.49766c-0.14644,0.03994 -0.29288,0.07322 -0.43931,0.09984c-0.14644,0.02663 -0.29288,0.05991 -0.43931,0.09984c-0.06656,0.01331 -0.12647,0.01997 -0.17972,0.01997c-0.05325,0 -0.1065,0.00666 -0.15975,0.01997l-0.65897,0.05991c-0.03994,0.01331 -0.1298,0.01664 -0.26958,0.00998c-0.13978,-0.00666 -0.22964,-0.01664 -0.26958,-0.02995c-0.06656,-0.01331 -0.1298,-0.01664 -0.1897,-0.00998c-0.05991,0.00666 -0.11648,0.00333 -0.16974,-0.00998h-0.21966c-0.09319,-0.02663 -0.18305,-0.04327 -0.26958,-0.04992c-0.08653,-0.00666 -0.17639,-0.01664 -0.26958,-0.02995c-0.13313,-0.03994 -0.26292,-0.06989 -0.38939,-0.08986c-0.12647,-0.01997 -0.25627,-0.04992 -0.38939,-0.08986c-0.13313,-0.05325 -0.26625,-0.1065 -0.39938,-0.15975c-0.13313,-0.05325 -0.26625,-0.1065 -0.39938,-0.15975c-0.81207,-0.35944 -1.48102,-0.85533 -2.00687,-1.48768c-0.52585,-0.63235 -0.96183,-1.36787 -1.30796,-2.20656c-0.07988,-0.18638 -0.13978,-0.37941 -0.17972,-0.5791c-0.03994,-0.19969 -0.09319,-0.40603 -0.15975,-0.61903c-0.02663,-0.05325 -0.03661,-0.09984 -0.02995,-0.13978c0.00666,-0.03994 -0.00333,-0.09319 -0.02995,-0.15975c-0.02663,-0.09319 -0.03994,-0.19303 -0.03994,-0.29953c0,-0.1065 -0.01331,-0.213 -0.03994,-0.3195c-0.02663,-0.05325 -0.03661,-0.1065 -0.02995,-0.15975c0.00666,-0.05325 0.00333,-0.09984 -0.00998,-0.13978v-0.41935c-0.02663,-0.06656 -0.03994,-0.15975 -0.03994,-0.27956c0,-0.11981 0.01331,-0.213 0.03994,-0.27956v-0.25959l0.05991,-0.71888c0.02663,-0.07988 0.03994,-0.15975 0.03994,-0.23963c0,-0.07988 0.01331,-0.15975 0.03994,-0.23963c0.05325,-0.213 0.09984,-0.42267 0.13978,-0.62902c0.03994,-0.20634 0.09984,-0.40271 0.17972,-0.58908c0.1065,-0.25294 0.20634,-0.49922 0.29953,-0.73885c0.09319,-0.23963 0.213,-0.46594 0.35944,-0.67894c0.37275,-0.59907 0.81207,-1.11826 1.31794,-1.55757c0.50588,-0.43931 1.10494,-0.79875 1.7972,-1.07832c0.14644,-0.06656 0.30286,-0.11981 0.46927,-0.15975c0.16641,-0.03994 0.33614,-0.08653 0.50921,-0.13978c0.07988,-0.02663 0.16308,-0.03994 0.24961,-0.03994c0.08653,0 0.16974,-0.01331 0.24961,-0.03994c0.1065,-0.01331 0.20967,-0.0233 0.30952,-0.02995c0.09984,-0.00666 0.20302,-0.01664 0.30952,-0.02995c0.02663,-0.01331 0.05991,-0.01331 0.09984,0c0.03994,0.01331 0.07322,0.01331 0.09984,0c0.89194,-0.02663 1.67073,0.06323 2.33635,0.26958c0.66563,0.20634 1.25138,0.48924 1.75726,0.84868c0.19969,0.13313 0.39272,0.27291 0.5791,0.41935c0.18638,0.14644 0.35278,0.31285 0.49922,0.49922c0.03994,0.06656 0.08653,0.11981 0.13978,0.15975c0.05325,0.03994 0.09984,0.09319 0.13978,0.15975c0.07988,0.1065 0.15975,0.21633 0.23963,0.32949c0.07988,0.11316 0.15309,0.22299 0.21966,0.32949c0.02663,0.06656 0.05325,0.12314 0.07988,0.16974c0.02663,0.04659 0.05991,0.10317 0.09984,0.16974c0.05325,0.07988 0.09984,0.15975 0.13978,0.23963c0.1065,0.23963 0.213,0.49256 0.3195,0.75882c0.02663,0.07988 0.04992,0.15642 0.06989,0.22964c0.01997,0.07322 0.04327,0.14977 0.06989,0.22964c0.03994,0.13313 0.07655,0.26958 0.10983,0.40936c0.03328,0.13978 0.06989,0.28289 0.10983,0.42933c0.02663,0.06656 0.03994,0.13313 0.03994,0.19969c0,0.06656 0.00666,0.13313 0.01997,0.19969c0.02663,0.09319 0.03994,0.18638 0.03994,0.27956c0,0.09319 0.01331,0.19303 0.03994,0.29953v0.11981c0.01331,0.06656 0.01331,0.13313 0,0.19969c-0.01331,0.06656 -0.00666,0.13313 0.01997,0.19969zM453.10521,267.5826c0.02663,-0.06656 0.03994,-0.18305 0.03994,-0.34945c0,-0.16641 -0.01331,-0.28289 -0.03994,-0.34945v-0.15975c0,-0.06656 -0.00333,-0.12647 -0.00998,-0.17972c-0.00666,-0.05325 -0.00998,-0.11316 -0.00998,-0.17972c-0.02663,-0.06656 -0.03661,-0.1298 -0.02995,-0.1897c0.00666,-0.05991 -0.00333,-0.12314 -0.02995,-0.1897c-0.02663,-0.11981 -0.04992,-0.23963 -0.06989,-0.35944c-0.01997,-0.11981 -0.04327,-0.23297 -0.06989,-0.33947c-0.06656,-0.18638 -0.12314,-0.36277 -0.16974,-0.52917c-0.04659,-0.16641 -0.10317,-0.32949 -0.16974,-0.48924c-0.22631,-0.54582 -0.53583,-1.03838 -0.92855,-1.47769c-0.39272,-0.43931 -0.85533,-0.77878 -1.38783,-1.01841c-0.29288,-0.13313 -0.639,-0.23963 -1.03838,-0.3195c-0.18638,-0.05325 -0.39605,-0.0832 -0.62902,-0.08986c-0.23297,-0.00666 -0.46261,-0.00998 -0.68893,-0.00998c-0.09319,0.01331 -0.18305,0.0233 -0.26958,0.02995c-0.08653,0.00666 -0.18305,0.01664 -0.28955,0.02995c-0.19969,0.05325 -0.38939,0.10317 -0.56911,0.14977c-0.17972,0.04659 -0.35611,0.10317 -0.52917,0.16974c-0.71888,0.30619 -1.28466,0.7455 -1.69735,1.31794c-0.41269,0.57244 -0.7455,1.24472 -0.99844,2.01685c-0.05325,0.14644 -0.08986,0.2962 -0.10983,0.4493c-0.01997,0.15309 -0.04992,0.30952 -0.08986,0.46927c-0.01331,0.06656 -0.01997,0.1298 -0.01997,0.1897c0,0.05991 -0.00666,0.12314 -0.01997,0.1897c-0.02663,0.05325 -0.03661,0.10983 -0.02995,0.16974c0.00666,0.05991 0.00333,0.11648 -0.00998,0.16974v0.17972c-0.01331,0.06656 -0.01997,0.18638 -0.01997,0.35944c0,0.17306 0.00666,0.29288 0.01997,0.35944c0,0.05325 0.00333,0.10317 0.00998,0.14977c0.00666,0.04659 0.00998,0.09652 0.00998,0.14977c0.02663,0.1065 0.04327,0.22299 0.04992,0.34945c0.00666,0.12647 0.0233,0.24295 0.04992,0.34945c0.01331,0.05325 0.01664,0.10317 0.00998,0.14977c-0.00666,0.04659 0.00333,0.09652 0.02995,0.14977c0.03994,0.14644 0.07322,0.29288 0.09984,0.43931c0.02663,0.14644 0.07322,0.29288 0.13978,0.43931c0.06656,0.14644 0.12314,0.28955 0.16974,0.42933c0.04659,0.13978 0.10983,0.27624 0.1897,0.40936c0.06656,0.1065 0.1298,0.20967 0.1897,0.30952c0.05991,0.09984 0.12314,0.20302 0.1897,0.30952c0.41269,0.58575 0.95185,1.04504 1.61748,1.37785c0.18638,0.1065 0.37608,0.18638 0.56911,0.23963c0.19303,0.05325 0.40271,0.11316 0.62902,0.17972c0.09319,0.02663 0.17972,0.03661 0.25959,0.02995c0.07988,-0.00666 0.16641,0.00333 0.25959,0.02995c0.07988,0.02663 0.16974,0.03661 0.26958,0.02995c0.09984,-0.00666 0.20302,-0.00998 0.30952,-0.00998h0.19969c0.06656,-0.01331 0.13313,-0.0233 0.19969,-0.02995c0.06656,-0.00666 0.13313,-0.00998 0.19969,-0.00998c0.18638,-0.03994 0.36277,-0.07322 0.52917,-0.09984c0.16641,-0.02663 0.32283,-0.07322 0.46927,-0.13978c0.67894,-0.27956 1.23474,-0.64566 1.6674,-1.09829c0.43266,-0.45263 0.78877,-1.01841 1.06833,-1.69735c0.06656,-0.17306 0.12314,-0.35278 0.16974,-0.53916c0.04659,-0.18638 0.09652,-0.37275 0.14977,-0.55913c0.02663,-0.07988 0.04327,-0.16308 0.04992,-0.24961c0.00666,-0.08653 0.0233,-0.17639 0.04992,-0.26958l0.05991,-0.65897z"
                            data-paper-data="{&quot;glyphName&quot;:&quot;O&quot;,&quot;glyphIndex&quot;:6,&quot;lastGlyphOfWord&quot;:true,&quot;word&quot;:1}"
                            id="element-id-61929"></path></g><g
                        data-paper-data="{&quot;isPrimaryText&quot;:true}"
                        id="element-id-70278"><path
                            d="M225.12487,196.17952h-9.43604c-0.07203,0 -0.07203,0.14406 0,0.14406h4.75403c0.36015,0 0.79234,0.14406 0.64828,0.72031l-11.66899,35.79931c-0.14406,0.21609 -0.36015,0.21609 -0.50422,0l-11.30884,-35.79931c-0.14406,-0.57625 0.28812,-0.72031 0.64828,-0.72031h4.682c0.07203,0 0.07203,-0.14406 0,-0.14406h-22.18549c-0.07203,0 -0.07203,0.14406 0,0.14406h3.45748c0.43218,0 0.64828,0.14406 0.86437,0.72031l16.49505,49.98938h3.38545l16.27896,-49.98938c0.21609,-0.57625 0.43218,-0.72031 0.86437,-0.72031h3.02529c0.07203,0 0.07203,-0.14406 0,-0.14406z"
                            data-paper-data="{&quot;glyphName&quot;:&quot;V&quot;,&quot;glyphIndex&quot;:0,&quot;firstGlyphOfWord&quot;:true,&quot;word&quot;:1}"
                            id="element-id-67901"></path><path
                            d="M258.05495,246.45702h-4.75403c-0.43218,0 -0.72031,-0.28812 -0.72031,-0.72031v-48.69282c0,-0.43218 0.28812,-0.72031 0.72031,-0.72031h4.75403c0.07203,0 0.07203,-0.14406 0,-0.14406h-22.83376c-0.07203,0 -0.07203,0.14406 0,0.14406h4.82606c0.43218,0 0.72031,0.28812 0.72031,0.72031v48.69282c0,0.43218 -0.28812,0.72031 -0.72031,0.72031h-4.82606c-0.07203,0 -0.07203,0.14406 0,0.14406h22.83376c0.07203,0 0.07203,-0.14406 0,-0.14406z"
                            data-paper-data="{&quot;glyphName&quot;:&quot;I&quot;,&quot;glyphIndex&quot;:1,&quot;word&quot;:1}"
                            id="element-id-97658"></path><path
                            d="M292.85783,247.46545c11.23681,0 16.56708,-7.99542 16.56708,-20.96096c0,-0.07203 -0.14406,-0.07203 -0.14406,0c0,12.96554 -5.40231,20.8169 -16.42302,20.8169c-8.57167,0 -11.09274,-7.27511 -11.09274,-26.50734c0,-18.51192 2.44905,-25.35484 10.94868,-25.35484c8.85979,0 14.40616,4.89809 15.1985,16.92724c0,0.07203 0.14406,0.07203 0.14406,0v-16.20693h-0.07203c-0.28812,1.94483 -0.79234,3.09732 -2.44905,3.09732c-3.16936,0 -4.53794,-3.96169 -12.82148,-3.96169c-13.03758,0 -23.8422,10.22837 -23.8422,26.36327c0,16.42302 10.87665,25.78703 23.98626,25.78703z"
                            data-paper-data="{&quot;glyphName&quot;:&quot;C&quot;,&quot;glyphIndex&quot;:2,&quot;word&quot;:1}"
                            id="element-id-1732"></path><path
                            d="M366.05313,196.17952h-43.79473v13.10961h0.14406c0.28812,-6.26668 1.8728,-12.96554 11.4529,-12.96554h3.60154c0.43218,0 0.72031,0.28812 0.72031,0.72031v48.69282c0,0.43218 -0.28812,0.72031 -0.72031,0.72031h-4.97013c-0.07203,0 -0.07203,0.14406 0,0.14406h23.41001c0.07203,0 0.07203,-0.14406 0,-0.14406h-4.97013c-0.43218,0 -0.72031,-0.28812 -0.72031,-0.72031v-48.69282c0,-0.43218 0.28812,-0.72031 0.72031,-0.72031h3.60154c9.5801,0 11.09274,6.69886 11.38087,12.96554h0.14406z"
                            data-paper-data="{&quot;glyphName&quot;:&quot;T&quot;,&quot;glyphIndex&quot;:3,&quot;word&quot;:1}"
                            id="element-id-23966"></path><path
                            d="M426.42695,221.3903c0,-17.43145 -12.60539,-26.07515 -24.20235,-26.07515c-11.4529,0 -24.20235,8.6437 -24.20235,26.07515c0,17.43145 12.74945,26.07515 24.20235,26.07515c11.59696,0 24.20235,-8.6437 24.20235,-26.07515zM402.2246,247.32139c-7.99542,0 -11.30884,-5.33028 -11.30884,-25.85906c0,-20.60081 3.31342,-26.00312 11.30884,-26.00312c8.06745,0 11.30884,5.40231 11.30884,25.93109c0,20.52878 -3.24139,25.93109 -11.30884,25.93109z"
                            data-paper-data="{&quot;glyphName&quot;:&quot;O&quot;,&quot;glyphIndex&quot;:4,&quot;word&quot;:1}"
                            id="element-id-92857"></path><path
                            d="M484.85594,241.41487c-0.14406,3.67357 -1.51265,4.75403 -3.02529,4.75403c-2.8092,0 -3.16936,-6.98699 -3.67357,-13.03758c-0.72031,-9.364 -6.41074,-11.02071 -11.59696,-11.52493c7.92339,-0.79234 11.4529,-5.6184 11.4529,-12.89351c0,-9.364 -6.33871,-12.74945 -18.51192,-12.67742c-0.79234,0 -4.03373,0.14406 -7.20308,0.14406h-14.98241c-0.07203,0 -0.07203,0.14406 0,0.14406h4.53794c0.43218,0 0.72031,0.28812 0.72031,0.72031v48.69282c0,0.43218 -0.28812,0.72031 -0.72031,0.72031h-4.60997c-0.07203,0 -0.07203,0.14406 0,0.14406h22.6897c0.07203,0 0.07203,-0.14406 0,-0.14406h-4.60997c-0.43218,0 -0.72031,-0.28812 -0.72031,-0.72031v-23.19392c0,-0.43218 0.28812,-0.72031 0.72031,-0.72031h3.38545c5.97856,0 6.5548,4.46591 7.56323,12.10118c1.22452,9.65213 4.03373,13.25367 12.74945,13.25367c4.682,0 5.8345,-1.94483 5.97856,-5.76246c0,-0.07203 -0.14406,-0.07203 -0.14406,0zM460.79765,221.67843h-5.47434c-0.43218,0 -0.72031,-0.28812 -0.72031,-0.72031v-24.34641c0,-0.36015 4.10576,-0.43218 4.89809,-0.43218c5.90653,0 6.98699,3.31342 6.98699,13.39773c0,10.08431 -1.72874,12.10118 -5.69043,12.10118z"
                            data-paper-data="{&quot;glyphName&quot;:&quot;R&quot;,&quot;glyphIndex&quot;:5,&quot;lastGlyphOfWord&quot;:true,&quot;word&quot;:1}"
                            id="element-id-10226"></path></g><g
                        data-paper-data="{&quot;isIcon&quot;:&quot;true&quot;,&quot;iconType&quot;:&quot;icon&quot;,&quot;rawIconId&quot;:&quot;08371e84-1360-4465-a810-31f41f3ff30a&quot;,&quot;selectedEffects&quot;:{&quot;container&quot;:&quot;&quot;,&quot;transformation&quot;:&quot;&quot;,&quot;pattern&quot;:&quot;&quot;},&quot;isDetailed&quot;:false,&quot;fillRule&quot;:&quot;nonzero&quot;,&quot;bounds&quot;:{&quot;x&quot;:65,&quot;y&quot;:194.45720484580497,&quot;width&quot;:89.07831546672043,&quot;height&quot;:81.08559030839004},&quot;iconStyle&quot;:&quot;standalone&quot;,&quot;suitableAsStandaloneIcon&quot;:true}"
                        id="element-id-46604"><path
                            d="M105.07945,267.43423l35.44599,-72.97702h13.55288l-39.38443,81.08559h-4.7493l37.29937,-76.79963h-4.05428l-37.18354,76.79963h-1.96922l-39.03692,-81.08559h22.58813l19.92389,41.23782l-2.43257,4.98097l-20.15556,-41.93283h-13.08953zM77.62618,202.44993h4.7493l22.8198,47.14548l26.52657,-55.1382h4.86514l-31.3917,64.9843z"
                            data-paper-data="{&quot;isPathIcon&quot;:true}"
                            id="element-id-37666"></path></g></g></g><rect
                data-element-id="element-id-70278" stroke-width="2"
                fill="transparent"
                class="invisible-element-box grouping-element" x="181" y="195"
                width="304" height="52" data-element-name="isPrimaryText"></rect><rect
                data-element-id="element-id-46604" stroke-width="2"
                fill="transparent"
                class="invisible-element-box grouping-element" x="65" y="194"
                width="89" height="81" data-element-name="isIcon"></rect><rect
                data-element-id="element-id-5478" stroke-width="2"
                fill="transparent"
                class="invisible-element-box grouping-element" x="200" y="260"
                width="255" height="15" data-element-name="isSecondaryText"></rect></svg>